<?xml version="1.0" standalone="no"?>
<!DOCTYPE svg PUBLIC "-//W3C//DTD SVG 20010904//EN"
 "http://www.w3.org/TR/2001/REC-SVG-20010904/DTD/svg10.dtd">
<svg version="1.0" xmlns="http://www.w3.org/2000/svg"
 width="972.000000pt" height="972.000000pt" viewBox="0 0 972.000000 972.000000"
 preserveAspectRatio="xMidYMid meet">
<metadata>
Created by potrace 1.14, written by Peter Selinger 2001-2017
</metadata>
<g transform="translate(0.000000,972.000000) scale(0.100000,-0.100000)"
fill="#000000" stroke="none">
<path d="M1297 7954 c-1 -1 -36 -4 -77 -7 -77 -6 -124 -14 -170 -29 -191 -61
-222 -74 -310 -125 -51 -29 -152 -94 -160 -103 -3 -3 -23 -18 -45 -34 -43 -32
-192 -179 -239 -236 -43 -52 -133 -193 -151 -237 -9 -21 -22 -49 -28 -63 -5
-14 -11 -27 -11 -30 -1 -3 -9 -25 -17 -50 -9 -25 -22 -65 -27 -90 -6 -25 -14
-58 -18 -75 -4 -16 -9 -41 -12 -55 -2 -14 -6 -252 -8 -530 -2 -466 -1 -513 17
-610 11 -58 21 -114 23 -125 2 -11 13 -49 25 -84 12 -35 21 -70 21 -78 0 -7 5
-13 10 -13 6 0 9 -3 8 -7 -7 -35 146 -306 229 -405 75 -90 258 -260 339 -315
177 -121 315 -183 604 -273 91 -28 176 -55 190 -60 25 -9 383 -122 450 -142
19 -6 42 -13 50 -16 8 -3 20 -6 25 -7 6 -1 33 -10 60 -20 72 -24 297 -96 315
-100 8 -2 35 -11 59 -19 24 -9 53 -18 65 -21 12 -2 55 -16 96 -30 41 -15 84
-28 94 -30 40 -9 152 -49 180 -64 59 -33 63 -55 64 -326 0 -268 -3 -288 -55
-337 -56 -54 -58 -54 -718 -53 -585 1 -612 2 -650 20 -69 35 -74 53 -78 296
-4 232 -12 275 -73 383 -41 73 -152 179 -226 215 -112 55 -147 60 -423 57
-137 -2 -259 -6 -270 -9 -122 -32 -201 -80 -289 -171 -65 -68 -100 -130 -127
-225 -17 -58 -19 -103 -18 -415 1 -330 4 -385 27 -511 15 -78 56 -203 93 -280
41 -87 110 -205 121 -205 4 0 8 -5 8 -11 0 -24 146 -182 236 -254 27 -21 51
-42 54 -45 3 -3 28 -20 55 -38 28 -17 55 -35 60 -39 40 -31 260 -123 330 -138
11 -2 31 -7 45 -10 140 -33 165 -34 1170 -32 547 2 1005 5 1016 9 12 3 39 9
60 12 141 23 318 94 454 183 184 122 371 324 458 499 43 86 87 189 81 189 -1
0 3 11 10 24 7 13 14 33 16 45 2 11 10 53 18 91 26 120 30 198 30 615 1 351
-7 581 -18 600 -2 3 -6 26 -10 50 -15 101 -91 325 -131 387 -8 12 -14 29 -14
38 0 8 -4 15 -10 15 -5 0 -10 4 -10 10 0 17 -118 193 -170 254 -78 91 -124
137 -205 203 -119 97 -113 93 -119 93 -3 0 -22 11 -42 25 -77 52 -235 120
-424 182 -107 36 -199 66 -205 67 -5 1 -30 9 -55 16 -25 8 -47 14 -50 15 -3 0
-90 28 -195 62 -104 34 -271 87 -370 118 -99 31 -198 62 -220 70 -48 16 -336
108 -350 111 -29 6 -214 68 -241 79 -36 17 -59 41 -69 73 -12 40 -9 515 4 554
14 41 44 71 86 85 19 6 263 10 655 9 l625 -1 42 -30 c67 -48 80 -82 81 -205 1
-187 5 -254 17 -297 7 -24 10 -43 7 -43 -3 0 -1 -5 6 -12 7 -7 12 -20 12 -29
0 -9 7 -22 15 -29 9 -7 13 -15 11 -18 -7 -6 49 -85 90 -127 31 -32 100 -81
144 -103 90 -44 107 -46 390 -48 266 -3 277 -2 345 20 96 32 149 63 206 118
87 85 149 202 165 317 12 80 6 772 -7 789 -2 3 -4 12 -13 62 -9 51 -24 107
-37 132 -5 10 -9 25 -9 33 0 33 -113 250 -172 330 -59 80 -177 204 -269 280
-129 108 -401 240 -539 261 -8 1 -40 8 -70 14 -41 9 -299 13 -998 14 -519 1
-944 1 -945 0z"/>
<path d="M6587 7954 c-1 -1 -30 -5 -65 -8 -150 -16 -312 -63 -432 -128 -116
-62 -155 -88 -255 -167 -70 -57 -207 -207 -263 -289 -50 -73 -124 -204 -127
-222 0 -3 -10 -30 -21 -60 -29 -75 -44 -125 -50 -158 -2 -15 -7 -40 -11 -57
-9 -46 -13 -74 -18 -150 -6 -97 -5 -4460 1 -4510 28 -217 202 -404 419 -451
88 -20 523 -18 601 2 140 36 268 139 335 269 34 65 42 88 57 155 3 14 7 963 8
2109 1 1147 5 2099 8 2116 4 18 19 45 34 61 57 61 27 59 711 59 l626 0 42 -30
c24 -16 52 -48 62 -70 19 -39 20 -86 20 -2115 0 -1141 2 -2089 4 -2106 12 -80
54 -183 101 -248 27 -38 95 -106 106 -106 4 0 13 -7 20 -15 18 -22 131 -72
182 -82 46 -9 553 -10 578 -2 8 3 31 9 50 13 168 40 329 226 366 423 8 44 9
4492 1 4568 -8 74 -17 123 -34 190 -8 33 -16 65 -18 70 -1 6 -5 19 -9 30 -70
187 -174 360 -287 477 -20 21 -35 38 -33 38 4 0 -60 58 -134 123 -18 15 -36
27 -42 27 -5 0 -10 4 -10 8 0 5 -12 15 -27 22 -16 8 -35 19 -43 26 -54 42
-269 133 -345 147 -11 2 -27 7 -35 10 -8 3 -37 9 -65 13 -27 3 -61 9 -75 11
-22 4 -1928 11 -1933 7z"/>
</g>
</svg>
